<svg xmlns="http://www.w3.org/2000/svg" viewBox="0 0 64 64">
  <defs>
    <radialGradient id="bg" cx="50%" cy="50%" r="50%">
      <stop offset="0%" stop-color="#1a2942"/>
      <stop offset="100%" stop-color="#0d1117"/>
    </radialGradient>
    <linearGradient id="sg" x1="0%" y1="0%" x2="100%" y2="100%">
      <stop offset="0%" stop-color="#58a6ff"/>
      <stop offset="100%" stop-color="#1f6feb"/>
    </linearGradient>
  </defs>
  <circle cx="32" cy="32" r="32" fill="url(#bg)"/>
  <path d="M32 7 L52 16 L52 33 C52 44 32 57 32 57 C32 57 12 44 12 33 L12 16 Z" fill="url(#sg)"/>
  <path d="M32 7 L52 16 L52 33 C52 44 32 57 32 57 C32 57 12 44 12 33 L12 16 Z"
        fill="none" stroke="#79c0ff" stroke-width="1" opacity="0.5"/>
  <circle cx="32" cy="28" r="9" fill="#0d1117" opacity="0.85"/>
  <circle cx="32" cy="28" r="9" fill="none" stroke="#58a6ff" stroke-width="1.5" opacity="0.6"/>
  <circle cx="32" cy="28" r="5" fill="none" stroke="#58a6ff" stroke-width="1" opacity="0.4"/>
  <line x1="32" y1="20" x2="32" y2="28" stroke="#58a6ff" stroke-width="1.5" stroke-linecap="round"/>
  <line x1="32" y1="28" x2="37" y2="24" stroke="#79c0ff" stroke-width="1.2" stroke-linecap="round" opacity="0.8"/>
  <circle cx="32" cy="28" r="1.5" fill="#ffffff"/>
  <path d="M22 41 L42 41" stroke="#ffffff" stroke-width="1.5" stroke-linecap="round" opacity="0.5"/>
  <path d="M25 45 L39 45" stroke="#ffffff" stroke-width="1" stroke-linecap="round" opacity="0.3"/>
</svg>
